%TF.GenerationSoftware,KiCad,Pcbnew,(6.0.10)*%
%TF.CreationDate,2023-02-16T14:14:42-08:00*%
%TF.ProjectId,Exercise 2,45786572-6369-4736-9520-322e6b696361,rev?*%
%TF.SameCoordinates,Original*%
%TF.FileFunction,Copper,L1,Top*%
%TF.FilePolarity,Positive*%
%FSLAX46Y46*%
G04 Gerber Fmt 4.6, Leading zero omitted, Abs format (unit mm)*
G04 Created by KiCad (PCBNEW (6.0.10)) date 2023-02-16 14:14:42*
%MOMM*%
%LPD*%
G01*
G04 APERTURE LIST*
G04 Aperture macros list*
%AMRoundRect*
0 Rectangle with rounded corners*
0 $1 Rounding radius*
0 $2 $3 $4 $5 $6 $7 $8 $9 X,Y pos of 4 corners*
0 Add a 4 corners polygon primitive as box body*
4,1,4,$2,$3,$4,$5,$6,$7,$8,$9,$2,$3,0*
0 Add four circle primitives for the rounded corners*
1,1,$1+$1,$2,$3*
1,1,$1+$1,$4,$5*
1,1,$1+$1,$6,$7*
1,1,$1+$1,$8,$9*
0 Add four rect primitives between the rounded corners*
20,1,$1+$1,$2,$3,$4,$5,0*
20,1,$1+$1,$4,$5,$6,$7,0*
20,1,$1+$1,$6,$7,$8,$9,0*
20,1,$1+$1,$8,$9,$2,$3,0*%
G04 Aperture macros list end*
%TA.AperFunction,SMDPad,CuDef*%
%ADD10RoundRect,0.250001X-0.462499X-0.624999X0.462499X-0.624999X0.462499X0.624999X-0.462499X0.624999X0*%
%TD*%
%TA.AperFunction,SMDPad,CuDef*%
%ADD11RoundRect,0.250000X-0.450000X0.350000X-0.450000X-0.350000X0.450000X-0.350000X0.450000X0.350000X0*%
%TD*%
%TA.AperFunction,SMDPad,CuDef*%
%ADD12RoundRect,0.250000X0.450000X-0.350000X0.450000X0.350000X-0.450000X0.350000X-0.450000X-0.350000X0*%
%TD*%
%TA.AperFunction,SMDPad,CuDef*%
%ADD13RoundRect,0.250000X0.337500X0.475000X-0.337500X0.475000X-0.337500X-0.475000X0.337500X-0.475000X0*%
%TD*%
%TA.AperFunction,SMDPad,CuDef*%
%ADD14RoundRect,0.250000X0.537500X0.425000X-0.537500X0.425000X-0.537500X-0.425000X0.537500X-0.425000X0*%
%TD*%
%TA.AperFunction,SMDPad,CuDef*%
%ADD15RoundRect,0.150000X-0.825000X-0.150000X0.825000X-0.150000X0.825000X0.150000X-0.825000X0.150000X0*%
%TD*%
%TA.AperFunction,SMDPad,CuDef*%
%ADD16R,2.290000X3.000000*%
%TD*%
%TA.AperFunction,ComponentPad*%
%ADD17R,3.000000X3.000000*%
%TD*%
%TA.AperFunction,ComponentPad*%
%ADD18C,3.000000*%
%TD*%
%TA.AperFunction,ViaPad*%
%ADD19C,0.800000*%
%TD*%
%TA.AperFunction,Conductor*%
%ADD20C,0.254000*%
%TD*%
G04 APERTURE END LIST*
D10*
%TO.P,D2,1,K*%
%TO.N,GND*%
X164882500Y-93980000D03*
%TO.P,D2,2,A*%
%TO.N,Net-(D2-Pad2)*%
X167857500Y-93980000D03*
%TD*%
D11*
%TO.P,R4,1*%
%TO.N,U1 Pin 3*%
X167640000Y-89170000D03*
%TO.P,R4,2*%
%TO.N,Net-(D2-Pad2)*%
X167640000Y-91170000D03*
%TD*%
D12*
%TO.P,R3,1*%
%TO.N,Net-(D1-Pad1)*%
X147320000Y-91170000D03*
%TO.P,R3,2*%
%TO.N,U1 Pin 3*%
X147320000Y-89170000D03*
%TD*%
%TO.P,R1,1*%
%TO.N,+9V*%
X149860000Y-91170000D03*
%TO.P,R1,2*%
%TO.N,Net-(R1-Pad2)*%
X149860000Y-89170000D03*
%TD*%
D13*
%TO.P,C2,1*%
%TO.N,Net-(C2-Pad1)*%
X158517500Y-88900000D03*
%TO.P,C2,2*%
%TO.N,GND*%
X156442500Y-88900000D03*
%TD*%
D14*
%TO.P,C1,1*%
%TO.N,U1 Pin 2*%
X158750000Y-100330000D03*
%TO.P,C1,2*%
%TO.N,GND*%
X155875000Y-100330000D03*
%TD*%
D15*
%TO.P,U1,1,GND*%
%TO.N,GND*%
X155035000Y-92075000D03*
%TO.P,U1,2,TR*%
%TO.N,U1 Pin 2*%
X155035000Y-93345000D03*
%TO.P,U1,3,Q*%
%TO.N,U1 Pin 3*%
X155035000Y-94615000D03*
%TO.P,U1,4,R*%
%TO.N,+9V*%
X155035000Y-95885000D03*
%TO.P,U1,5,CV*%
%TO.N,Net-(C2-Pad1)*%
X159985000Y-95885000D03*
%TO.P,U1,6,THR*%
%TO.N,U1 Pin 2*%
X159985000Y-94615000D03*
%TO.P,U1,7,DIS*%
%TO.N,Net-(R1-Pad2)*%
X159985000Y-93345000D03*
%TO.P,U1,8,VCC*%
%TO.N,+9V*%
X159985000Y-92075000D03*
D16*
%TO.P,U1,9*%
%TO.N,N/C*%
X157510000Y-93980000D03*
%TD*%
D12*
%TO.P,R2,1*%
%TO.N,Net-(R1-Pad2)*%
X165100000Y-91170000D03*
%TO.P,R2,2*%
%TO.N,U1 Pin 2*%
X165100000Y-89170000D03*
%TD*%
D17*
%TO.P,J1,1,Pin_1*%
%TO.N,GND*%
X154940000Y-81280000D03*
D18*
%TO.P,J1,2,Pin_2*%
%TO.N,+9V*%
X160020000Y-81280000D03*
%TD*%
D10*
%TO.P,D1,1,K*%
%TO.N,Net-(D1-Pad1)*%
X147102500Y-93980000D03*
%TO.P,D1,2,A*%
%TO.N,+9V*%
X150077500Y-93980000D03*
%TD*%
D19*
%TO.N,U1 Pin 2*%
X162560000Y-95250000D03*
X162560000Y-90170000D03*
%TO.N,GND*%
X154940000Y-90170000D03*
X156210000Y-91623500D03*
%TO.N,Net-(C2-Pad1)*%
X158750000Y-97790000D03*
X157480000Y-90170500D03*
%TO.N,+9V*%
X152400000Y-93436500D03*
X152400000Y-97790000D03*
X161337224Y-92618500D03*
X151130000Y-91983500D03*
%TO.N,Net-(R1-Pad2)*%
X152400000Y-91440000D03*
X162560000Y-92710000D03*
%TO.N,U1 Pin 3*%
X148590000Y-90170000D03*
X166370000Y-90170000D03*
%TD*%
D20*
%TO.N,U1 Pin 2*%
X164100000Y-90170000D02*
X165100000Y-89170000D01*
X161290000Y-97790000D02*
X158750000Y-100330000D01*
X161580420Y-95250000D02*
X162560000Y-95250000D01*
X159985000Y-94615000D02*
X160364580Y-94615000D01*
X154563420Y-90897000D02*
X153670000Y-91790420D01*
X160364580Y-94615000D02*
X161290000Y-95540420D01*
X154027472Y-93345000D02*
X155035000Y-93345000D01*
X153670000Y-92987528D02*
X154027472Y-93345000D01*
X153670000Y-91790420D02*
X153670000Y-92987528D01*
X162560000Y-90170000D02*
X161833000Y-90897000D01*
X161290000Y-95540420D02*
X161580420Y-95250000D01*
X161290000Y-95540420D02*
X161290000Y-97790000D01*
X162560000Y-90170000D02*
X164100000Y-90170000D01*
X161833000Y-90897000D02*
X154563420Y-90897000D01*
%TO.N,GND*%
X155035000Y-92075000D02*
X155758500Y-92075000D01*
X155758500Y-92075000D02*
X156210000Y-91623500D01*
%TO.N,Net-(C2-Pad1)*%
X157480000Y-89937500D02*
X158517500Y-88900000D01*
X158750000Y-97790000D02*
X158750000Y-97120000D01*
X157480000Y-90170500D02*
X157480000Y-89937500D01*
X158750000Y-97120000D02*
X159985000Y-95885000D01*
%TO.N,Net-(D1-Pad1)*%
X147102500Y-91387500D02*
X147320000Y-91170000D01*
X147102500Y-93980000D02*
X147102500Y-91387500D01*
%TO.N,+9V*%
X155035000Y-95885000D02*
X154305000Y-95885000D01*
X150621000Y-93436500D02*
X152400000Y-93436500D01*
X150077500Y-93980000D02*
X150621000Y-93436500D01*
X149860000Y-91170000D02*
X150316500Y-91170000D01*
X160793724Y-92075000D02*
X161337224Y-92618500D01*
X154305000Y-95885000D02*
X152400000Y-97790000D01*
X159985000Y-92075000D02*
X160793724Y-92075000D01*
X150316500Y-91170000D02*
X151130000Y-91983500D01*
%TO.N,Net-(R1-Pad2)*%
X152130000Y-91440000D02*
X149860000Y-89170000D01*
X162560000Y-92710000D02*
X164100000Y-91170000D01*
X152400000Y-91440000D02*
X152130000Y-91440000D01*
X161925000Y-93345000D02*
X162560000Y-92710000D01*
X159985000Y-93345000D02*
X161925000Y-93345000D01*
X164100000Y-91170000D02*
X165100000Y-91170000D01*
%TO.N,U1 Pin 3*%
X149783999Y-92710000D02*
X152750420Y-92710000D01*
X154655420Y-94615000D02*
X155035000Y-94615000D01*
X148590000Y-91516001D02*
X149783999Y-92710000D01*
X148320000Y-90170000D02*
X147320000Y-89170000D01*
X148590000Y-90170000D02*
X148590000Y-91516001D01*
X152750420Y-92710000D02*
X154655420Y-94615000D01*
X148590000Y-90170000D02*
X148320000Y-90170000D01*
X167370000Y-89170000D02*
X166370000Y-90170000D01*
X167640000Y-89170000D02*
X167370000Y-89170000D01*
%TO.N,Net-(D2-Pad2)*%
X167857500Y-91387500D02*
X167640000Y-91170000D01*
X167857500Y-93980000D02*
X167857500Y-91387500D01*
%TD*%
%TA.AperFunction,Conductor*%
%TO.N,GND*%
G36*
X144685096Y-76715235D02*
G01*
X144688436Y-76713150D01*
X144722349Y-76708500D01*
X170062158Y-76708500D01*
X170085096Y-76715235D01*
X170088436Y-76713150D01*
X170122349Y-76708500D01*
X172085500Y-76708500D01*
X172153621Y-76728502D01*
X172200114Y-76782158D01*
X172211500Y-76834500D01*
X172211500Y-78681666D01*
X172191498Y-78749787D01*
X172173242Y-78765605D01*
X172179370Y-78769404D01*
X172209909Y-78833497D01*
X172211500Y-78853454D01*
X172211500Y-102811666D01*
X172191498Y-102879787D01*
X172173242Y-102895605D01*
X172179370Y-102899404D01*
X172209909Y-102963497D01*
X172211500Y-102983454D01*
X172211500Y-104775500D01*
X172191498Y-104843621D01*
X172137842Y-104890114D01*
X172085500Y-104901500D01*
X170275610Y-104901500D01*
X170218628Y-104884769D01*
X170196660Y-104897697D01*
X170165936Y-104901500D01*
X144875610Y-104901500D01*
X144818628Y-104884769D01*
X144796660Y-104897697D01*
X144765936Y-104901500D01*
X142874500Y-104901500D01*
X142806379Y-104881498D01*
X142759886Y-104827842D01*
X142748500Y-104775500D01*
X142748500Y-102896621D01*
X142765069Y-102840191D01*
X142981944Y-102840191D01*
X142995396Y-102861123D01*
X143000355Y-102890576D01*
X143009582Y-103082679D01*
X143009583Y-103082686D01*
X143009807Y-103087352D01*
X143010720Y-103091941D01*
X143035811Y-103218080D01*
X143061378Y-103346616D01*
X143062957Y-103351014D01*
X143062959Y-103351021D01*
X143134294Y-103549704D01*
X143150704Y-103595410D01*
X143152921Y-103599536D01*
X143220301Y-103724936D01*
X143275822Y-103828267D01*
X143278617Y-103832011D01*
X143278619Y-103832013D01*
X143361743Y-103943329D01*
X143433985Y-104040073D01*
X143437292Y-104043351D01*
X143437297Y-104043357D01*
X143536879Y-104142073D01*
X143621718Y-104226174D01*
X143834896Y-104382483D01*
X143839031Y-104384659D01*
X143839035Y-104384661D01*
X143962293Y-104449510D01*
X144068836Y-104505565D01*
X144318400Y-104592716D01*
X144322993Y-104593588D01*
X144573515Y-104641151D01*
X144573518Y-104641151D01*
X144578104Y-104642022D01*
X144770883Y-104649597D01*
X144821419Y-104666618D01*
X144840112Y-104654604D01*
X144861892Y-104650249D01*
X144935339Y-104642205D01*
X145105015Y-104623622D01*
X145109526Y-104622434D01*
X145109528Y-104622434D01*
X145356124Y-104557511D01*
X145356126Y-104557510D01*
X145360647Y-104556320D01*
X145475191Y-104507108D01*
X145599229Y-104453817D01*
X145599231Y-104453816D01*
X145603523Y-104451972D01*
X145828307Y-104312871D01*
X145844788Y-104298919D01*
X146026496Y-104145093D01*
X146026498Y-104145091D01*
X146030063Y-104142073D01*
X146204356Y-103943329D01*
X146278367Y-103828267D01*
X146344831Y-103724936D01*
X146347359Y-103721006D01*
X146455930Y-103479988D01*
X146527683Y-103225570D01*
X146561043Y-102963340D01*
X146563487Y-102870000D01*
X146560018Y-102823314D01*
X168397124Y-102823314D01*
X168398856Y-102859368D01*
X168409807Y-103087352D01*
X168410720Y-103091941D01*
X168435811Y-103218080D01*
X168461378Y-103346616D01*
X168462957Y-103351014D01*
X168462959Y-103351021D01*
X168534294Y-103549704D01*
X168550704Y-103595410D01*
X168552921Y-103599536D01*
X168620301Y-103724936D01*
X168675822Y-103828267D01*
X168678617Y-103832011D01*
X168678619Y-103832013D01*
X168761743Y-103943329D01*
X168833985Y-104040073D01*
X168837292Y-104043351D01*
X168837297Y-104043357D01*
X168936879Y-104142073D01*
X169021718Y-104226174D01*
X169234896Y-104382483D01*
X169239031Y-104384659D01*
X169239035Y-104384661D01*
X169362293Y-104449510D01*
X169468836Y-104505565D01*
X169718400Y-104592716D01*
X169722993Y-104593588D01*
X169973515Y-104641151D01*
X169973518Y-104641151D01*
X169978104Y-104642022D01*
X170170883Y-104649597D01*
X170221419Y-104666618D01*
X170240112Y-104654604D01*
X170261892Y-104650249D01*
X170335339Y-104642205D01*
X170505015Y-104623622D01*
X170509526Y-104622434D01*
X170509528Y-104622434D01*
X170756124Y-104557511D01*
X170756126Y-104557510D01*
X170760647Y-104556320D01*
X170875191Y-104507108D01*
X170999229Y-104453817D01*
X170999231Y-104453816D01*
X171003523Y-104451972D01*
X171228307Y-104312871D01*
X171244788Y-104298919D01*
X171426496Y-104145093D01*
X171426498Y-104145091D01*
X171430063Y-104142073D01*
X171604356Y-103943329D01*
X171678367Y-103828267D01*
X171744831Y-103724936D01*
X171747359Y-103721006D01*
X171855930Y-103479988D01*
X171927683Y-103225570D01*
X171960507Y-102967553D01*
X171988946Y-102902501D01*
X171996804Y-102897268D01*
X171964604Y-102847164D01*
X171959846Y-102821004D01*
X171944243Y-102611036D01*
X171944242Y-102611032D01*
X171943897Y-102606384D01*
X171885557Y-102348559D01*
X171870028Y-102308626D01*
X171791442Y-102106542D01*
X171791441Y-102106540D01*
X171789749Y-102102189D01*
X171763535Y-102056323D01*
X171660897Y-101876745D01*
X171658578Y-101872687D01*
X171494925Y-101665094D01*
X171302385Y-101483970D01*
X171265212Y-101458182D01*
X171089026Y-101335958D01*
X171089021Y-101335955D01*
X171085188Y-101333296D01*
X171080997Y-101331229D01*
X170852294Y-101218445D01*
X170852291Y-101218444D01*
X170848106Y-101216380D01*
X170791150Y-101198148D01*
X170600792Y-101137214D01*
X170600794Y-101137214D01*
X170596347Y-101135791D01*
X170453825Y-101112580D01*
X170340053Y-101094051D01*
X170340052Y-101094051D01*
X170335441Y-101093300D01*
X170203281Y-101091570D01*
X170075798Y-101089901D01*
X170075795Y-101089901D01*
X170071121Y-101089840D01*
X169809192Y-101125486D01*
X169804702Y-101126795D01*
X169804696Y-101126796D01*
X169696732Y-101158265D01*
X169555410Y-101199457D01*
X169551163Y-101201415D01*
X169551160Y-101201416D01*
X169481602Y-101233483D01*
X169315348Y-101310127D01*
X169311439Y-101312690D01*
X169098195Y-101452499D01*
X169098190Y-101452503D01*
X169094282Y-101455065D01*
X168897067Y-101631086D01*
X168728036Y-101834324D01*
X168590901Y-102060314D01*
X168589095Y-102064622D01*
X168589094Y-102064623D01*
X168500233Y-102276534D01*
X168488677Y-102304091D01*
X168487526Y-102308623D01*
X168487525Y-102308626D01*
X168465082Y-102396996D01*
X168423608Y-102560301D01*
X168397124Y-102823314D01*
X146560018Y-102823314D01*
X146559152Y-102811666D01*
X146544243Y-102611036D01*
X146544242Y-102611032D01*
X146543897Y-102606384D01*
X146485557Y-102348559D01*
X146470028Y-102308626D01*
X146391442Y-102106542D01*
X146391441Y-102106540D01*
X146389749Y-102102189D01*
X146363535Y-102056323D01*
X146260897Y-101876745D01*
X146258578Y-101872687D01*
X146094925Y-101665094D01*
X145902385Y-101483970D01*
X145865212Y-101458182D01*
X145689026Y-101335958D01*
X145689021Y-101335955D01*
X145685188Y-101333296D01*
X145680997Y-101331229D01*
X145452294Y-101218445D01*
X145452291Y-101218444D01*
X145448106Y-101216380D01*
X145391150Y-101198148D01*
X145200792Y-101137214D01*
X145200794Y-101137214D01*
X145196347Y-101135791D01*
X145053825Y-101112580D01*
X144940053Y-101094051D01*
X144940052Y-101094051D01*
X144935441Y-101093300D01*
X144803281Y-101091570D01*
X144675798Y-101089901D01*
X144675795Y-101089901D01*
X144671121Y-101089840D01*
X144409192Y-101125486D01*
X144404702Y-101126795D01*
X144404696Y-101126796D01*
X144296732Y-101158265D01*
X144155410Y-101199457D01*
X144151163Y-101201415D01*
X144151160Y-101201416D01*
X144081602Y-101233483D01*
X143915348Y-101310127D01*
X143911439Y-101312690D01*
X143698195Y-101452499D01*
X143698190Y-101452503D01*
X143694282Y-101455065D01*
X143497067Y-101631086D01*
X143328036Y-101834324D01*
X143190901Y-102060314D01*
X143189095Y-102064622D01*
X143189094Y-102064623D01*
X143100233Y-102276534D01*
X143088677Y-102304091D01*
X143087526Y-102308623D01*
X143087525Y-102308626D01*
X143065082Y-102396996D01*
X143023608Y-102560301D01*
X143023139Y-102564959D01*
X142999866Y-102796083D01*
X142981944Y-102840191D01*
X142765069Y-102840191D01*
X142766039Y-102836888D01*
X142750656Y-102806666D01*
X142748500Y-102783459D01*
X142748500Y-100802095D01*
X154579501Y-100802095D01*
X154579838Y-100808614D01*
X154589757Y-100904206D01*
X154592649Y-100917600D01*
X154644088Y-101071784D01*
X154650261Y-101084962D01*
X154735563Y-101222807D01*
X154744599Y-101234208D01*
X154859329Y-101348739D01*
X154870740Y-101357751D01*
X155008743Y-101442816D01*
X155021924Y-101448963D01*
X155176210Y-101500138D01*
X155189586Y-101503005D01*
X155283938Y-101512672D01*
X155290354Y-101513000D01*
X155602885Y-101513000D01*
X155618124Y-101508525D01*
X155619329Y-101507135D01*
X155621000Y-101499452D01*
X155621000Y-101494884D01*
X156129000Y-101494884D01*
X156133475Y-101510123D01*
X156134865Y-101511328D01*
X156142548Y-101512999D01*
X156459595Y-101512999D01*
X156466114Y-101512662D01*
X156561706Y-101502743D01*
X156575100Y-101499851D01*
X156729284Y-101448412D01*
X156742462Y-101442239D01*
X156880307Y-101356937D01*
X156891708Y-101347901D01*
X157006239Y-101233171D01*
X157015251Y-101221760D01*
X157100316Y-101083757D01*
X157106463Y-101070576D01*
X157157638Y-100916290D01*
X157160505Y-100902914D01*
X157170172Y-100808562D01*
X157170500Y-100802146D01*
X157170500Y-100602115D01*
X157166025Y-100586876D01*
X157164635Y-100585671D01*
X157156952Y-100584000D01*
X156147115Y-100584000D01*
X156131876Y-100588475D01*
X156130671Y-100589865D01*
X156129000Y-100597548D01*
X156129000Y-101494884D01*
X155621000Y-101494884D01*
X155621000Y-100602115D01*
X155616525Y-100586876D01*
X155615135Y-100585671D01*
X155607452Y-100584000D01*
X154597616Y-100584000D01*
X154582377Y-100588475D01*
X154581172Y-100589865D01*
X154579501Y-100597548D01*
X154579501Y-100802095D01*
X142748500Y-100802095D01*
X142748500Y-100057885D01*
X154579500Y-100057885D01*
X154583975Y-100073124D01*
X154585365Y-100074329D01*
X154593048Y-100076000D01*
X155602885Y-100076000D01*
X155618124Y-100071525D01*
X155619329Y-100070135D01*
X155621000Y-100062452D01*
X155621000Y-100057885D01*
X156129000Y-100057885D01*
X156133475Y-100073124D01*
X156134865Y-100074329D01*
X156142548Y-100076000D01*
X157152384Y-100076000D01*
X157167623Y-100071525D01*
X157168828Y-100070135D01*
X157170499Y-100062452D01*
X157170499Y-99857905D01*
X157170162Y-99851386D01*
X157160243Y-99755794D01*
X157157351Y-99742400D01*
X157105912Y-99588216D01*
X157099739Y-99575038D01*
X157014437Y-99437193D01*
X157005401Y-99425792D01*
X156890671Y-99311261D01*
X156879260Y-99302249D01*
X156741257Y-99217184D01*
X156728076Y-99211037D01*
X156573790Y-99159862D01*
X156560414Y-99156995D01*
X156466062Y-99147328D01*
X156459645Y-99147000D01*
X156147115Y-99147000D01*
X156131876Y-99151475D01*
X156130671Y-99152865D01*
X156129000Y-99160548D01*
X156129000Y-100057885D01*
X155621000Y-100057885D01*
X155621000Y-99165116D01*
X155616525Y-99149877D01*
X155615135Y-99148672D01*
X155607452Y-99147001D01*
X155290405Y-99147001D01*
X155283886Y-99147338D01*
X155188294Y-99157257D01*
X155174900Y-99160149D01*
X155020716Y-99211588D01*
X155007538Y-99217761D01*
X154869693Y-99303063D01*
X154858292Y-99312099D01*
X154743761Y-99426829D01*
X154734749Y-99438240D01*
X154649684Y-99576243D01*
X154643537Y-99589424D01*
X154592362Y-99743710D01*
X154589495Y-99757086D01*
X154579828Y-99851438D01*
X154579500Y-99857855D01*
X154579500Y-100057885D01*
X142748500Y-100057885D01*
X142748500Y-94655400D01*
X145881500Y-94655400D01*
X145881837Y-94658646D01*
X145881837Y-94658650D01*
X145891752Y-94754203D01*
X145892474Y-94761165D01*
X145894655Y-94767701D01*
X145894655Y-94767703D01*
X145915940Y-94831502D01*
X145948450Y-94928945D01*
X146041522Y-95079348D01*
X146166697Y-95204305D01*
X146172927Y-95208145D01*
X146172928Y-95208146D01*
X146310090Y-95292694D01*
X146317262Y-95297115D01*
X146351539Y-95308484D01*
X146478611Y-95350632D01*
X146478613Y-95350632D01*
X146485139Y-95352797D01*
X146491975Y-95353497D01*
X146491978Y-95353498D01*
X146535031Y-95357909D01*
X146589600Y-95363500D01*
X147615400Y-95363500D01*
X147618646Y-95363163D01*
X147618650Y-95363163D01*
X147714307Y-95353238D01*
X147714311Y-95353237D01*
X147721165Y-95352526D01*
X147727701Y-95350345D01*
X147727703Y-95350345D01*
X147859805Y-95306272D01*
X147888945Y-95296550D01*
X148039348Y-95203478D01*
X148164305Y-95078303D01*
X148257115Y-94927738D01*
X148310196Y-94767703D01*
X148310632Y-94766389D01*
X148310632Y-94766387D01*
X148312797Y-94759861D01*
X148313509Y-94752919D01*
X148323172Y-94658598D01*
X148323500Y-94655400D01*
X148323500Y-93304600D01*
X148317518Y-93246944D01*
X148313238Y-93205693D01*
X148313237Y-93205689D01*
X148312526Y-93198835D01*
X148256550Y-93031055D01*
X148163478Y-92880652D01*
X148038303Y-92755695D01*
X148032072Y-92751854D01*
X147893968Y-92666725D01*
X147893966Y-92666724D01*
X147887738Y-92662885D01*
X147824332Y-92641854D01*
X147765972Y-92601423D01*
X147738736Y-92535858D01*
X147738000Y-92522261D01*
X147738000Y-92400652D01*
X147758002Y-92332531D01*
X147811658Y-92286038D01*
X147850995Y-92275326D01*
X147880896Y-92272223D01*
X147919308Y-92268238D01*
X147919312Y-92268237D01*
X147926166Y-92267526D01*
X147932702Y-92265345D01*
X147932704Y-92265345D01*
X148064806Y-92221272D01*
X148093946Y-92211550D01*
X148172982Y-92162641D01*
X148190016Y-92152100D01*
X148258468Y-92133262D01*
X148326238Y-92154423D01*
X148345414Y-92170149D01*
X148961005Y-92785740D01*
X148995031Y-92848052D01*
X148989966Y-92918867D01*
X148979170Y-92940951D01*
X148922885Y-93032262D01*
X148920581Y-93039209D01*
X148869771Y-93192398D01*
X148867203Y-93200139D01*
X148866503Y-93206975D01*
X148866502Y-93206978D01*
X148862993Y-93241226D01*
X148856500Y-93304600D01*
X148856500Y-94655400D01*
X148856837Y-94658646D01*
X148856837Y-94658650D01*
X148866752Y-94754203D01*
X148867474Y-94761165D01*
X148869655Y-94767701D01*
X148869655Y-94767703D01*
X148890940Y-94831502D01*
X148923450Y-94928945D01*
X149016522Y-95079348D01*
X149141697Y-95204305D01*
X149147927Y-95208145D01*
X149147928Y-95208146D01*
X149285090Y-95292694D01*
X149292262Y-95297115D01*
X149326539Y-95308484D01*
X149453611Y-95350632D01*
X149453613Y-95350632D01*
X149460139Y-95352797D01*
X149466975Y-95353497D01*
X149466978Y-95353498D01*
X149510031Y-95357909D01*
X149564600Y-95363500D01*
X150590400Y-95363500D01*
X150593646Y-95363163D01*
X150593650Y-95363163D01*
X150689307Y-95353238D01*
X150689311Y-95353237D01*
X150696165Y-95352526D01*
X150702701Y-95350345D01*
X150702703Y-95350345D01*
X150834805Y-95306272D01*
X150863945Y-95296550D01*
X151014348Y-95203478D01*
X151139305Y-95078303D01*
X151232115Y-94927738D01*
X151285196Y-94767703D01*
X151285632Y-94766389D01*
X151285632Y-94766387D01*
X151287797Y-94759861D01*
X151288509Y-94752919D01*
X151298172Y-94658598D01*
X151298500Y-94655400D01*
X151298500Y-94198000D01*
X151318502Y-94129879D01*
X151372158Y-94083386D01*
X151424500Y-94072000D01*
X151693601Y-94072000D01*
X151761722Y-94092002D01*
X151778908Y-94106609D01*
X151779420Y-94106040D01*
X151784332Y-94110463D01*
X151788747Y-94115366D01*
X151943248Y-94227618D01*
X151949276Y-94230302D01*
X151949278Y-94230303D01*
X151998269Y-94252115D01*
X152117712Y-94305294D01*
X152211113Y-94325147D01*
X152298056Y-94343628D01*
X152298061Y-94343628D01*
X152304513Y-94345000D01*
X152495487Y-94345000D01*
X152501939Y-94343628D01*
X152501944Y-94343628D01*
X152588888Y-94325147D01*
X152682288Y-94305294D01*
X152801731Y-94252115D01*
X152850722Y-94230303D01*
X152850724Y-94230302D01*
X152856752Y-94227618D01*
X153011253Y-94115366D01*
X153023448Y-94101822D01*
X153038869Y-94084696D01*
X153099315Y-94047457D01*
X153170299Y-94048809D01*
X153221599Y-94079912D01*
X153514595Y-94372908D01*
X153548621Y-94435220D01*
X153551500Y-94462003D01*
X153551500Y-94831502D01*
X153554438Y-94868831D01*
X153600855Y-95028601D01*
X153685547Y-95171807D01*
X153688229Y-95174489D01*
X153713502Y-95238861D01*
X153699600Y-95308484D01*
X153689428Y-95324312D01*
X153685547Y-95328193D01*
X153600855Y-95471399D01*
X153554438Y-95631169D01*
X153551500Y-95668498D01*
X153551500Y-95687578D01*
X153531498Y-95755699D01*
X153514595Y-95776673D01*
X152446672Y-96844595D01*
X152384360Y-96878621D01*
X152357577Y-96881500D01*
X152304513Y-96881500D01*
X152298061Y-96882872D01*
X152298056Y-96882872D01*
X152211112Y-96901353D01*
X152117712Y-96921206D01*
X152111682Y-96923891D01*
X152111681Y-96923891D01*
X151949278Y-96996197D01*
X151949276Y-96996198D01*
X151943248Y-96998882D01*
X151788747Y-97111134D01*
X151784326Y-97116044D01*
X151784325Y-97116045D01*
X151665385Y-97248142D01*
X151660960Y-97253056D01*
X151565473Y-97418444D01*
X151506458Y-97600072D01*
X151486496Y-97790000D01*
X151487186Y-97796565D01*
X151500672Y-97924873D01*
X151506458Y-97979928D01*
X151565473Y-98161556D01*
X151660960Y-98326944D01*
X151788747Y-98468866D01*
X151943248Y-98581118D01*
X151949276Y-98583802D01*
X151949278Y-98583803D01*
X152111681Y-98656109D01*
X152117712Y-98658794D01*
X152211113Y-98678647D01*
X152298056Y-98697128D01*
X152298061Y-98697128D01*
X152304513Y-98698500D01*
X152495487Y-98698500D01*
X152501939Y-98697128D01*
X152501944Y-98697128D01*
X152588887Y-98678647D01*
X152682288Y-98658794D01*
X152688319Y-98656109D01*
X152850722Y-98583803D01*
X152850724Y-98583802D01*
X152856752Y-98581118D01*
X153011253Y-98468866D01*
X153139040Y-98326944D01*
X153234527Y-98161556D01*
X153293542Y-97979928D01*
X153299329Y-97924873D01*
X153310575Y-97817867D01*
X153337588Y-97752210D01*
X153346790Y-97741942D01*
X154358328Y-96730405D01*
X154420640Y-96696379D01*
X154447423Y-96693500D01*
X155926502Y-96693500D01*
X155928950Y-96693307D01*
X155928958Y-96693307D01*
X155957421Y-96691067D01*
X155957426Y-96691066D01*
X155963831Y-96690562D01*
X156063769Y-96661528D01*
X156115988Y-96646357D01*
X156115990Y-96646356D01*
X156123601Y-96644145D01*
X156173305Y-96614750D01*
X156259980Y-96563491D01*
X156259983Y-96563489D01*
X156266807Y-96559453D01*
X156384453Y-96441807D01*
X156388489Y-96434983D01*
X156388491Y-96434980D01*
X156465108Y-96305427D01*
X156469145Y-96298601D01*
X156515562Y-96138831D01*
X156517351Y-96116109D01*
X156518255Y-96104614D01*
X156543541Y-96038273D01*
X156600679Y-95996133D01*
X156643867Y-95988500D01*
X158376133Y-95988500D01*
X158444254Y-96008502D01*
X158490747Y-96062158D01*
X158501745Y-96104614D01*
X158502650Y-96116109D01*
X158504438Y-96138831D01*
X158550855Y-96298601D01*
X158554442Y-96304667D01*
X158563093Y-96374737D01*
X158527853Y-96443414D01*
X158356517Y-96614750D01*
X158348191Y-96622326D01*
X158341697Y-96626447D01*
X158336274Y-96632222D01*
X158294915Y-96676265D01*
X158292160Y-96679107D01*
X158272361Y-96698906D01*
X158269937Y-96702031D01*
X158269929Y-96702040D01*
X158269863Y-96702126D01*
X158262155Y-96711151D01*
X158231783Y-96743494D01*
X158227965Y-96750438D01*
X158227964Y-96750440D01*
X158221978Y-96761329D01*
X158211127Y-96777847D01*
X158198650Y-96793933D01*
X158181024Y-96834666D01*
X158175807Y-96845314D01*
X158154431Y-96884197D01*
X158152460Y-96891872D01*
X158152458Y-96891878D01*
X158149369Y-96903911D01*
X158142966Y-96922613D01*
X158134883Y-96941292D01*
X158133644Y-96949117D01*
X158127940Y-96985127D01*
X158125535Y-96996740D01*
X158114500Y-97039718D01*
X158114500Y-97060065D01*
X158112949Y-97079776D01*
X158109765Y-97099879D01*
X158109840Y-97100673D01*
X158088699Y-97165118D01*
X158078527Y-97178014D01*
X158015384Y-97248142D01*
X158015382Y-97248145D01*
X158010960Y-97253056D01*
X157915473Y-97418444D01*
X157856458Y-97600072D01*
X157836496Y-97790000D01*
X157837186Y-97796565D01*
X157850672Y-97924873D01*
X157856458Y-97979928D01*
X157915473Y-98161556D01*
X158010960Y-98326944D01*
X158138747Y-98468866D01*
X158293248Y-98581118D01*
X158299276Y-98583802D01*
X158299278Y-98583803D01*
X158461681Y-98656109D01*
X158467712Y-98658794D01*
X158561113Y-98678647D01*
X158648056Y-98697128D01*
X158648061Y-98697128D01*
X158654513Y-98698500D01*
X158845487Y-98698500D01*
X158851939Y-98697128D01*
X158851944Y-98697128D01*
X158938887Y-98678647D01*
X159032288Y-98658794D01*
X159038319Y-98656109D01*
X159200722Y-98583803D01*
X159200724Y-98583802D01*
X159206752Y-98581118D01*
X159350140Y-98476940D01*
X159384625Y-98464636D01*
X159389395Y-98442709D01*
X159406347Y-98418784D01*
X159484621Y-98331852D01*
X159484622Y-98331851D01*
X159489040Y-98326944D01*
X159584527Y-98161556D01*
X159643542Y-97979928D01*
X159649329Y-97924873D01*
X159662814Y-97796565D01*
X159663504Y-97790000D01*
X159643542Y-97600072D01*
X159584527Y-97418444D01*
X159547130Y-97353671D01*
X159530393Y-97284678D01*
X159553613Y-97217586D01*
X159567155Y-97201578D01*
X160038328Y-96730405D01*
X160100640Y-96696379D01*
X160127423Y-96693500D01*
X160528500Y-96693500D01*
X160596621Y-96713502D01*
X160643114Y-96767158D01*
X160654500Y-96819500D01*
X160654500Y-97474577D01*
X160634498Y-97542698D01*
X160617595Y-97563672D01*
X159589078Y-98592189D01*
X159537866Y-98620154D01*
X159523981Y-98655817D01*
X159513296Y-98667971D01*
X159071672Y-99109595D01*
X159009360Y-99143621D01*
X158982577Y-99146500D01*
X158162100Y-99146500D01*
X158158854Y-99146837D01*
X158158850Y-99146837D01*
X158063192Y-99156762D01*
X158063188Y-99156763D01*
X158056334Y-99157474D01*
X158049798Y-99159655D01*
X158049796Y-99159655D01*
X158033428Y-99165116D01*
X157888554Y-99213450D01*
X157738152Y-99306522D01*
X157613195Y-99431697D01*
X157520385Y-99582262D01*
X157464703Y-99750139D01*
X157454000Y-99854600D01*
X157454000Y-100805400D01*
X157454337Y-100808646D01*
X157454337Y-100808650D01*
X157464252Y-100904206D01*
X157464974Y-100911166D01*
X157520950Y-101078946D01*
X157614022Y-101229348D01*
X157739197Y-101354305D01*
X157745427Y-101358145D01*
X157745428Y-101358146D01*
X157882788Y-101442816D01*
X157889762Y-101447115D01*
X157969505Y-101473564D01*
X158051111Y-101500632D01*
X158051113Y-101500632D01*
X158057639Y-101502797D01*
X158064475Y-101503497D01*
X158064478Y-101503498D01*
X158107531Y-101507909D01*
X158162100Y-101513500D01*
X159337900Y-101513500D01*
X159341146Y-101513163D01*
X159341150Y-101513163D01*
X159436808Y-101503238D01*
X159436812Y-101503237D01*
X159443666Y-101502526D01*
X159450202Y-101500345D01*
X159450204Y-101500345D01*
X159582306Y-101456272D01*
X159611446Y-101446550D01*
X159761848Y-101353478D01*
X159779338Y-101335958D01*
X159881634Y-101233483D01*
X159886805Y-101228303D01*
X159892882Y-101218445D01*
X159975775Y-101083968D01*
X159975776Y-101083966D01*
X159979615Y-101077738D01*
X160035297Y-100909861D01*
X160046000Y-100805400D01*
X160046000Y-99984922D01*
X160066002Y-99916801D01*
X160082905Y-99895827D01*
X161683477Y-98295255D01*
X161691803Y-98287678D01*
X161698303Y-98283553D01*
X161745101Y-98233718D01*
X161747855Y-98230877D01*
X161767638Y-98211094D01*
X161770129Y-98207883D01*
X161777838Y-98198856D01*
X161802789Y-98172286D01*
X161808217Y-98166506D01*
X161818022Y-98148671D01*
X161828876Y-98132147D01*
X161836491Y-98122330D01*
X161836492Y-98122329D01*
X161841349Y-98116067D01*
X161858969Y-98075350D01*
X161864192Y-98064689D01*
X161881749Y-98032753D01*
X161881751Y-98032748D01*
X161885569Y-98025803D01*
X161887539Y-98018129D01*
X161887542Y-98018122D01*
X161890632Y-98006087D01*
X161897036Y-97987382D01*
X161901967Y-97975987D01*
X161905117Y-97968708D01*
X161912060Y-97924873D01*
X161914467Y-97913251D01*
X161925500Y-97870282D01*
X161925500Y-97849935D01*
X161927051Y-97830224D01*
X161928995Y-97817950D01*
X161930235Y-97810121D01*
X161926059Y-97765944D01*
X161925500Y-97754086D01*
X161925500Y-96155937D01*
X161945502Y-96087816D01*
X161999158Y-96041323D01*
X162069432Y-96031219D01*
X162102552Y-96042680D01*
X162103248Y-96041118D01*
X162277712Y-96118794D01*
X162341822Y-96132421D01*
X162458056Y-96157128D01*
X162458061Y-96157128D01*
X162464513Y-96158500D01*
X162655487Y-96158500D01*
X162661939Y-96157128D01*
X162661944Y-96157128D01*
X162778178Y-96132421D01*
X162842288Y-96118794D01*
X162881127Y-96101502D01*
X163010722Y-96043803D01*
X163010724Y-96043802D01*
X163016752Y-96041118D01*
X163171253Y-95928866D01*
X163299040Y-95786944D01*
X163394527Y-95621556D01*
X163453542Y-95439928D01*
X163462958Y-95350345D01*
X163472814Y-95256565D01*
X163473504Y-95250000D01*
X163469064Y-95207751D01*
X163454232Y-95066635D01*
X163454232Y-95066633D01*
X163453542Y-95060072D01*
X163394527Y-94878444D01*
X163366000Y-94829033D01*
X163357314Y-94813990D01*
X163299040Y-94713056D01*
X163247127Y-94655400D01*
X163244152Y-94652096D01*
X163662000Y-94652096D01*
X163662337Y-94658611D01*
X163672256Y-94754203D01*
X163675150Y-94767602D01*
X163726588Y-94921783D01*
X163732762Y-94934962D01*
X163818063Y-95072807D01*
X163827099Y-95084208D01*
X163941830Y-95198739D01*
X163953241Y-95207751D01*
X164091245Y-95292818D01*
X164104423Y-95298962D01*
X164258716Y-95350139D01*
X164272081Y-95353005D01*
X164366439Y-95362672D01*
X164372855Y-95363000D01*
X164610385Y-95363000D01*
X164625624Y-95358525D01*
X164626829Y-95357135D01*
X164628500Y-95349452D01*
X164628500Y-95344885D01*
X165136500Y-95344885D01*
X165140975Y-95360124D01*
X165142365Y-95361329D01*
X165150048Y-95363000D01*
X165392096Y-95363000D01*
X165398611Y-95362663D01*
X165494203Y-95352744D01*
X165507602Y-95349850D01*
X165661783Y-95298412D01*
X165674962Y-95292238D01*
X165812807Y-95206937D01*
X165824208Y-95197901D01*
X165938739Y-95083170D01*
X165947751Y-95071759D01*
X166032818Y-94933755D01*
X166038962Y-94920577D01*
X166090139Y-94766284D01*
X166093005Y-94752919D01*
X166102672Y-94658561D01*
X166103000Y-94652145D01*
X166103000Y-94252115D01*
X166098525Y-94236876D01*
X166097135Y-94235671D01*
X166089452Y-94234000D01*
X165154615Y-94234000D01*
X165139376Y-94238475D01*
X165138171Y-94239865D01*
X165136500Y-94247548D01*
X165136500Y-95344885D01*
X164628500Y-95344885D01*
X164628500Y-94252115D01*
X164624025Y-94236876D01*
X164622635Y-94235671D01*
X164614952Y-94234000D01*
X163680115Y-94234000D01*
X163664876Y-94238475D01*
X163663671Y-94239865D01*
X163662000Y-94247548D01*
X163662000Y-94652096D01*
X163244152Y-94652096D01*
X163175675Y-94576045D01*
X163175674Y-94576044D01*
X163171253Y-94571134D01*
X163016752Y-94458882D01*
X163010724Y-94456198D01*
X163010722Y-94456197D01*
X162848319Y-94383891D01*
X162848318Y-94383891D01*
X162842288Y-94381206D01*
X162718962Y-94354992D01*
X162661944Y-94342872D01*
X162661939Y-94342872D01*
X162655487Y-94341500D01*
X162464513Y-94341500D01*
X162458061Y-94342872D01*
X162458056Y-94342872D01*
X162401038Y-94354992D01*
X162277712Y-94381206D01*
X162271682Y-94383891D01*
X162271681Y-94383891D01*
X162109278Y-94456197D01*
X162109276Y-94456198D01*
X162103248Y-94458882D01*
X162097907Y-94462762D01*
X162097906Y-94462763D01*
X161970329Y-94555454D01*
X161948747Y-94571134D01*
X161944332Y-94576037D01*
X161939420Y-94580460D01*
X161937779Y-94578638D01*
X161886790Y-94610050D01*
X161853601Y-94614500D01*
X161659452Y-94614500D01*
X161648213Y-94613970D01*
X161640701Y-94612291D01*
X161632776Y-94612540D01*
X161632775Y-94612540D01*
X161624493Y-94612800D01*
X161598458Y-94613619D01*
X161529744Y-94595767D01*
X161481588Y-94543599D01*
X161468500Y-94487681D01*
X161468500Y-94398498D01*
X161468307Y-94396042D01*
X161466067Y-94367579D01*
X161466066Y-94367574D01*
X161465562Y-94361169D01*
X161430320Y-94239865D01*
X161421357Y-94209012D01*
X161421356Y-94209010D01*
X161419145Y-94201399D01*
X161400953Y-94170638D01*
X161383494Y-94101822D01*
X161406011Y-94034491D01*
X161461356Y-93990022D01*
X161509407Y-93980500D01*
X161845980Y-93980500D01*
X161857214Y-93981030D01*
X161864719Y-93982708D01*
X161933012Y-93980562D01*
X161936969Y-93980500D01*
X161964983Y-93980500D01*
X161968908Y-93980004D01*
X161968909Y-93980004D01*
X161969004Y-93979992D01*
X161980849Y-93979059D01*
X162010670Y-93978122D01*
X162017282Y-93977914D01*
X162017283Y-93977914D01*
X162025205Y-93977665D01*
X162044749Y-93971987D01*
X162064112Y-93967977D01*
X162076440Y-93966420D01*
X162076442Y-93966420D01*
X162084299Y-93965427D01*
X162091663Y-93962511D01*
X162091668Y-93962510D01*
X162125556Y-93949093D01*
X162136785Y-93945248D01*
X162153465Y-93940402D01*
X162179393Y-93932869D01*
X162186220Y-93928831D01*
X162186223Y-93928830D01*
X162196906Y-93922512D01*
X162214664Y-93913812D01*
X162226215Y-93909239D01*
X162226221Y-93909235D01*
X162233588Y-93906319D01*
X162269491Y-93880234D01*
X162279410Y-93873719D01*
X162310768Y-93855174D01*
X162310772Y-93855171D01*
X162317598Y-93851134D01*
X162331982Y-93836750D01*
X162347016Y-93823909D01*
X162357073Y-93816602D01*
X162363487Y-93811942D01*
X162391778Y-93777744D01*
X162399767Y-93768965D01*
X162460847Y-93707885D01*
X163662000Y-93707885D01*
X163666475Y-93723124D01*
X163667865Y-93724329D01*
X163675548Y-93726000D01*
X164610385Y-93726000D01*
X164625624Y-93721525D01*
X164626829Y-93720135D01*
X164628500Y-93712452D01*
X164628500Y-93707885D01*
X165136500Y-93707885D01*
X165140975Y-93723124D01*
X165142365Y-93724329D01*
X165150048Y-93726000D01*
X166084885Y-93726000D01*
X166100124Y-93721525D01*
X166101329Y-93720135D01*
X166103000Y-93712452D01*
X166103000Y-93307904D01*
X166102663Y-93301389D01*
X166092744Y-93205797D01*
X166089850Y-93192398D01*
X166038412Y-93038217D01*
X166032238Y-93025038D01*
X165946937Y-92887193D01*
X165937901Y-92875792D01*
X165823170Y-92761261D01*
X165811759Y-92752249D01*
X165673755Y-92667182D01*
X165660577Y-92661038D01*
X165506284Y-92609861D01*
X165492919Y-92606995D01*
X165398561Y-92597328D01*
X165392144Y-92597000D01*
X165154615Y-92597000D01*
X165139376Y-92601475D01*
X165138171Y-92602865D01*
X165136500Y-92610548D01*
X165136500Y-93707885D01*
X164628500Y-93707885D01*
X164628500Y-92615115D01*
X164624025Y-92599876D01*
X164622635Y-92598671D01*
X164614952Y-92597000D01*
X164372904Y-92597000D01*
X164366389Y-92597337D01*
X164270797Y-92607256D01*
X164257398Y-92610150D01*
X164103217Y-92661588D01*
X164090038Y-92667762D01*
X163952193Y-92753063D01*
X163940792Y-92762099D01*
X163826261Y-92876830D01*
X163817249Y-92888241D01*
X163732182Y-93026245D01*
X163726038Y-93039423D01*
X163674861Y-93193716D01*
X163671995Y-93207081D01*
X163662328Y-93301439D01*
X163662000Y-93307856D01*
X163662000Y-93707885D01*
X162460847Y-93707885D01*
X162513327Y-93655405D01*
X162575639Y-93621379D01*
X162602422Y-93618500D01*
X162655487Y-93618500D01*
X162661939Y-93617128D01*
X162661944Y-93617128D01*
X162748887Y-93598647D01*
X162842288Y-93578794D01*
X162848319Y-93576109D01*
X163010722Y-93503803D01*
X163010724Y-93503802D01*
X163016752Y-93501118D01*
X163171253Y-93388866D01*
X163175675Y-93383955D01*
X163294621Y-93251852D01*
X163294622Y-93251851D01*
X163299040Y-93246944D01*
X163394527Y-93081556D01*
X163453542Y-92899928D01*
X163454771Y-92888241D01*
X163470575Y-92737868D01*
X163497588Y-92672211D01*
X163506790Y-92661942D01*
X164027535Y-92141198D01*
X164089847Y-92107173D01*
X164160663Y-92112238D01*
X164182746Y-92123034D01*
X164321032Y-92208275D01*
X164327262Y-92212115D01*
X164391118Y-92233295D01*
X164488611Y-92265632D01*
X164488613Y-92265632D01*
X164495139Y-92267797D01*
X164501975Y-92268497D01*
X164501978Y-92268498D01*
X164545031Y-92272909D01*
X164599600Y-92278500D01*
X165600400Y-92278500D01*
X165603646Y-92278163D01*
X165603650Y-92278163D01*
X165699308Y-92268238D01*
X165699312Y-92268237D01*
X165706166Y-92267526D01*
X165712702Y-92265345D01*
X165712704Y-92265345D01*
X165844806Y-92221272D01*
X165873946Y-92211550D01*
X166024348Y-92118478D01*
X166149305Y-91993303D01*
X166167450Y-91963867D01*
X166238275Y-91848968D01*
X166238276Y-91848966D01*
X166242115Y-91842738D01*
X166250463Y-91817570D01*
X166290893Y-91759209D01*
X166356457Y-91731972D01*
X166426339Y-91744505D01*
X166478351Y-91792829D01*
X166489579Y-91817359D01*
X166496129Y-91836993D01*
X166496133Y-91837003D01*
X166498450Y-91843946D01*
X166591522Y-91994348D01*
X166716697Y-92119305D01*
X166722927Y-92123145D01*
X166722928Y-92123146D01*
X166860090Y-92207694D01*
X166867262Y-92212115D01*
X166931118Y-92233295D01*
X167028611Y-92265632D01*
X167028613Y-92265632D01*
X167035139Y-92267797D01*
X167041977Y-92268498D01*
X167041979Y-92268498D01*
X167108843Y-92275349D01*
X167174570Y-92302191D01*
X167215352Y-92360306D01*
X167222000Y-92400693D01*
X167222000Y-92522300D01*
X167201998Y-92590421D01*
X167148342Y-92636914D01*
X167135876Y-92641824D01*
X167071055Y-92663450D01*
X166920652Y-92756522D01*
X166795695Y-92881697D01*
X166702885Y-93032262D01*
X166700581Y-93039209D01*
X166649771Y-93192398D01*
X166647203Y-93200139D01*
X166646503Y-93206975D01*
X166646502Y-93206978D01*
X166642993Y-93241226D01*
X166636500Y-93304600D01*
X166636500Y-94655400D01*
X166636837Y-94658646D01*
X166636837Y-94658650D01*
X166646752Y-94754203D01*
X166647474Y-94761165D01*
X166649655Y-94767701D01*
X166649655Y-94767703D01*
X166670940Y-94831502D01*
X166703450Y-94928945D01*
X166796522Y-95079348D01*
X166921697Y-95204305D01*
X166927927Y-95208145D01*
X166927928Y-95208146D01*
X167065090Y-95292694D01*
X167072262Y-95297115D01*
X167106539Y-95308484D01*
X167233611Y-95350632D01*
X167233613Y-95350632D01*
X167240139Y-95352797D01*
X167246975Y-95353497D01*
X167246978Y-95353498D01*
X167290031Y-95357909D01*
X167344600Y-95363500D01*
X168370400Y-95363500D01*
X168373646Y-95363163D01*
X168373650Y-95363163D01*
X168469307Y-95353238D01*
X168469311Y-95353237D01*
X168476165Y-95352526D01*
X168482701Y-95350345D01*
X168482703Y-95350345D01*
X168614805Y-95306272D01*
X168643945Y-95296550D01*
X168794348Y-95203478D01*
X168919305Y-95078303D01*
X169012115Y-94927738D01*
X169065196Y-94767703D01*
X169065632Y-94766389D01*
X169065632Y-94766387D01*
X169067797Y-94759861D01*
X169068509Y-94752919D01*
X169078172Y-94658598D01*
X169078500Y-94655400D01*
X169078500Y-93304600D01*
X169072518Y-93246944D01*
X169068238Y-93205693D01*
X169068237Y-93205689D01*
X169067526Y-93198835D01*
X169011550Y-93031055D01*
X168918478Y-92880652D01*
X168793303Y-92755695D01*
X168787072Y-92751854D01*
X168648968Y-92666725D01*
X168648966Y-92666724D01*
X168642738Y-92662885D01*
X168579332Y-92641854D01*
X168520972Y-92601423D01*
X168493736Y-92535858D01*
X168493000Y-92522261D01*
X168493000Y-92232833D01*
X168513002Y-92164712D01*
X168552694Y-92125691D01*
X168558120Y-92122333D01*
X168558125Y-92122329D01*
X168564348Y-92118478D01*
X168689305Y-91993303D01*
X168707450Y-91963867D01*
X168778275Y-91848968D01*
X168778276Y-91848966D01*
X168782115Y-91842738D01*
X168831564Y-91693653D01*
X168835632Y-91681389D01*
X168835632Y-91681387D01*
X168837797Y-91674861D01*
X168839177Y-91661399D01*
X168848172Y-91573598D01*
X168848500Y-91570400D01*
X168848500Y-90769600D01*
X168837526Y-90663834D01*
X168833833Y-90652763D01*
X168783868Y-90503002D01*
X168781550Y-90496054D01*
X168688478Y-90345652D01*
X168601891Y-90259216D01*
X168567812Y-90196934D01*
X168572815Y-90126114D01*
X168601736Y-90081025D01*
X168684134Y-89998483D01*
X168689305Y-89993303D01*
X168697461Y-89980072D01*
X168778275Y-89848968D01*
X168778276Y-89848966D01*
X168782115Y-89842738D01*
X168837797Y-89674861D01*
X168841495Y-89638774D01*
X168848172Y-89573598D01*
X168848500Y-89570400D01*
X168848500Y-88769600D01*
X168837526Y-88663834D01*
X168829620Y-88640135D01*
X168783868Y-88503002D01*
X168781550Y-88496054D01*
X168688478Y-88345652D01*
X168563303Y-88220695D01*
X168557072Y-88216854D01*
X168418968Y-88131725D01*
X168418966Y-88131724D01*
X168412738Y-88127885D01*
X168252254Y-88074655D01*
X168251389Y-88074368D01*
X168251387Y-88074368D01*
X168244861Y-88072203D01*
X168238025Y-88071503D01*
X168238022Y-88071502D01*
X168194969Y-88067091D01*
X168140400Y-88061500D01*
X167139600Y-88061500D01*
X167136354Y-88061837D01*
X167136350Y-88061837D01*
X167040692Y-88071762D01*
X167040688Y-88071763D01*
X167033834Y-88072474D01*
X167027298Y-88074655D01*
X167027296Y-88074655D01*
X166927344Y-88108002D01*
X166866054Y-88128450D01*
X166715652Y-88221522D01*
X166590695Y-88346697D01*
X166586855Y-88352927D01*
X166586854Y-88352928D01*
X166575499Y-88371350D01*
X166497885Y-88497262D01*
X166495581Y-88504209D01*
X166495580Y-88504212D01*
X166489537Y-88522430D01*
X166449107Y-88580791D01*
X166383543Y-88608028D01*
X166313661Y-88595495D01*
X166261649Y-88547171D01*
X166250421Y-88522641D01*
X166243871Y-88503007D01*
X166243867Y-88502997D01*
X166241550Y-88496054D01*
X166148478Y-88345652D01*
X166023303Y-88220695D01*
X166017072Y-88216854D01*
X165878968Y-88131725D01*
X165878966Y-88131724D01*
X165872738Y-88127885D01*
X165712254Y-88074655D01*
X165711389Y-88074368D01*
X165711387Y-88074368D01*
X165704861Y-88072203D01*
X165698025Y-88071503D01*
X165698022Y-88071502D01*
X165654969Y-88067091D01*
X165600400Y-88061500D01*
X164599600Y-88061500D01*
X164596354Y-88061837D01*
X164596350Y-88061837D01*
X164500692Y-88071762D01*
X164500688Y-88071763D01*
X164493834Y-88072474D01*
X164487298Y-88074655D01*
X164487296Y-88074655D01*
X164387344Y-88108002D01*
X164326054Y-88128450D01*
X164175652Y-88221522D01*
X164050695Y-88346697D01*
X164046855Y-88352927D01*
X164046854Y-88352928D01*
X164035499Y-88371350D01*
X163957885Y-88497262D01*
X163955581Y-88504209D01*
X163914560Y-88627885D01*
X163902203Y-88665139D01*
X163891500Y-88769600D01*
X163891500Y-89408500D01*
X163871498Y-89476621D01*
X163817842Y-89523114D01*
X163765500Y-89534500D01*
X163266399Y-89534500D01*
X163198278Y-89514498D01*
X163181092Y-89499891D01*
X163180580Y-89500460D01*
X163175668Y-89496037D01*
X163171253Y-89491134D01*
X163080778Y-89425400D01*
X163022094Y-89382763D01*
X163022093Y-89382762D01*
X163016752Y-89378882D01*
X163010724Y-89376198D01*
X163010722Y-89376197D01*
X162848319Y-89303891D01*
X162848318Y-89303891D01*
X162842288Y-89301206D01*
X162748887Y-89281353D01*
X162661944Y-89262872D01*
X162661939Y-89262872D01*
X162655487Y-89261500D01*
X162464513Y-89261500D01*
X162458061Y-89262872D01*
X162458056Y-89262872D01*
X162371113Y-89281353D01*
X162277712Y-89301206D01*
X162271682Y-89303891D01*
X162271681Y-89303891D01*
X162109278Y-89376197D01*
X162109276Y-89376198D01*
X162103248Y-89378882D01*
X161948747Y-89491134D01*
X161944326Y-89496044D01*
X161944325Y-89496045D01*
X161877376Y-89570400D01*
X161820960Y-89633056D01*
X161725473Y-89798444D01*
X161666458Y-89980072D01*
X161665768Y-89986633D01*
X161665768Y-89986635D01*
X161649425Y-90142132D01*
X161622412Y-90207789D01*
X161613210Y-90218057D01*
X161606672Y-90224595D01*
X161544360Y-90258621D01*
X161517577Y-90261500D01*
X159306970Y-90261500D01*
X159238849Y-90241498D01*
X159192356Y-90187842D01*
X159182252Y-90117568D01*
X159211746Y-90052988D01*
X159240667Y-90028356D01*
X159323120Y-89977332D01*
X159329348Y-89973478D01*
X159454305Y-89848303D01*
X159481165Y-89804729D01*
X159543275Y-89703968D01*
X159543276Y-89703966D01*
X159547115Y-89697738D01*
X159602797Y-89529861D01*
X159604149Y-89516672D01*
X159610533Y-89454360D01*
X159613500Y-89425400D01*
X159613500Y-88374600D01*
X159613163Y-88371350D01*
X159603238Y-88275692D01*
X159603237Y-88275688D01*
X159602526Y-88268834D01*
X159586742Y-88221522D01*
X159548868Y-88108002D01*
X159546550Y-88101054D01*
X159453478Y-87950652D01*
X159328303Y-87825695D01*
X159322072Y-87821854D01*
X159183968Y-87736725D01*
X159183966Y-87736724D01*
X159177738Y-87732885D01*
X159097995Y-87706436D01*
X159016389Y-87679368D01*
X159016387Y-87679368D01*
X159009861Y-87677203D01*
X159003025Y-87676503D01*
X159003022Y-87676502D01*
X158959969Y-87672091D01*
X158905400Y-87666500D01*
X158129600Y-87666500D01*
X158126354Y-87666837D01*
X158126350Y-87666837D01*
X158030692Y-87676762D01*
X158030688Y-87676763D01*
X158023834Y-87677474D01*
X158017298Y-87679655D01*
X158017296Y-87679655D01*
X158000928Y-87685116D01*
X157856054Y-87733450D01*
X157705652Y-87826522D01*
X157580695Y-87951697D01*
X157577898Y-87956235D01*
X157520647Y-87996824D01*
X157449724Y-88000054D01*
X157388313Y-87964428D01*
X157380938Y-87955932D01*
X157372902Y-87945793D01*
X157258171Y-87831261D01*
X157246760Y-87822249D01*
X157108757Y-87737184D01*
X157095576Y-87731037D01*
X156941290Y-87679862D01*
X156927914Y-87676995D01*
X156833562Y-87667328D01*
X156827145Y-87667000D01*
X156714615Y-87667000D01*
X156699376Y-87671475D01*
X156698171Y-87672865D01*
X156696500Y-87680548D01*
X156696500Y-89028000D01*
X156676498Y-89096121D01*
X156622842Y-89142614D01*
X156570500Y-89154000D01*
X155365116Y-89154000D01*
X155349877Y-89158475D01*
X155348672Y-89159865D01*
X155347001Y-89167548D01*
X155347001Y-89422095D01*
X155347338Y-89428614D01*
X155357257Y-89524206D01*
X155360149Y-89537600D01*
X155411588Y-89691784D01*
X155417761Y-89704962D01*
X155503063Y-89842807D01*
X155512099Y-89854208D01*
X155626829Y-89968739D01*
X155638240Y-89977751D01*
X155720149Y-90028240D01*
X155767642Y-90081012D01*
X155779066Y-90151084D01*
X155750792Y-90216207D01*
X155691798Y-90255707D01*
X155654033Y-90261500D01*
X154642452Y-90261500D01*
X154631213Y-90260970D01*
X154623701Y-90259291D01*
X154615776Y-90259540D01*
X154615775Y-90259540D01*
X154555390Y-90261438D01*
X154551432Y-90261500D01*
X154523437Y-90261500D01*
X154519503Y-90261997D01*
X154519501Y-90261997D01*
X154519414Y-90262008D01*
X154507580Y-90262940D01*
X154463215Y-90264335D01*
X154455602Y-90266547D01*
X154455601Y-90266547D01*
X154443672Y-90270013D01*
X154424308Y-90274023D01*
X154411980Y-90275580D01*
X154411978Y-90275580D01*
X154404121Y-90276573D01*
X154396757Y-90279489D01*
X154396752Y-90279490D01*
X154362864Y-90292907D01*
X154351635Y-90296752D01*
X154337661Y-90300812D01*
X154309027Y-90309131D01*
X154302201Y-90313168D01*
X154291511Y-90319490D01*
X154273761Y-90328187D01*
X154254832Y-90335681D01*
X154248418Y-90340341D01*
X154218934Y-90361762D01*
X154209014Y-90368278D01*
X154177649Y-90386827D01*
X154177646Y-90386829D01*
X154170822Y-90390865D01*
X154156434Y-90405253D01*
X154141400Y-90418094D01*
X154124933Y-90430058D01*
X154119880Y-90436166D01*
X154096648Y-90464249D01*
X154088658Y-90473029D01*
X153443341Y-91118346D01*
X153381029Y-91152372D01*
X153310214Y-91147307D01*
X153253378Y-91104760D01*
X153239140Y-91080502D01*
X153236568Y-91074725D01*
X153234527Y-91068444D01*
X153139040Y-90903056D01*
X153076034Y-90833080D01*
X153015675Y-90766045D01*
X153015674Y-90766044D01*
X153011253Y-90761134D01*
X152856752Y-90648882D01*
X152850724Y-90646198D01*
X152850722Y-90646197D01*
X152688319Y-90573891D01*
X152688318Y-90573891D01*
X152682288Y-90571206D01*
X152580546Y-90549580D01*
X152501944Y-90532872D01*
X152501939Y-90532872D01*
X152495487Y-90531500D01*
X152304513Y-90531500D01*
X152298053Y-90532873D01*
X152298054Y-90532873D01*
X152219451Y-90549580D01*
X152148661Y-90544178D01*
X152104160Y-90515428D01*
X151105405Y-89516672D01*
X151071379Y-89454360D01*
X151068500Y-89427577D01*
X151068500Y-88769600D01*
X151057526Y-88663834D01*
X151049620Y-88640135D01*
X151045533Y-88627885D01*
X155347000Y-88627885D01*
X155351475Y-88643124D01*
X155352865Y-88644329D01*
X155360548Y-88646000D01*
X156170385Y-88646000D01*
X156185624Y-88641525D01*
X156186829Y-88640135D01*
X156188500Y-88632452D01*
X156188500Y-87685116D01*
X156184025Y-87669877D01*
X156182635Y-87668672D01*
X156174952Y-87667001D01*
X156057905Y-87667001D01*
X156051386Y-87667338D01*
X155955794Y-87677257D01*
X155942400Y-87680149D01*
X155788216Y-87731588D01*
X155775038Y-87737761D01*
X155637193Y-87823063D01*
X155625792Y-87832099D01*
X155511261Y-87946829D01*
X155502249Y-87958240D01*
X155417184Y-88096243D01*
X155411037Y-88109424D01*
X155359862Y-88263710D01*
X155356995Y-88277086D01*
X155347328Y-88371438D01*
X155347000Y-88377855D01*
X155347000Y-88627885D01*
X151045533Y-88627885D01*
X151003868Y-88503002D01*
X151001550Y-88496054D01*
X150908478Y-88345652D01*
X150783303Y-88220695D01*
X150777072Y-88216854D01*
X150638968Y-88131725D01*
X150638966Y-88131724D01*
X150632738Y-88127885D01*
X150472254Y-88074655D01*
X150471389Y-88074368D01*
X150471387Y-88074368D01*
X150464861Y-88072203D01*
X150458025Y-88071503D01*
X150458022Y-88071502D01*
X150414969Y-88067091D01*
X150360400Y-88061500D01*
X149359600Y-88061500D01*
X149356354Y-88061837D01*
X149356350Y-88061837D01*
X149260692Y-88071762D01*
X149260688Y-88071763D01*
X149253834Y-88072474D01*
X149247298Y-88074655D01*
X149247296Y-88074655D01*
X149147344Y-88108002D01*
X149086054Y-88128450D01*
X148935652Y-88221522D01*
X148810695Y-88346697D01*
X148806855Y-88352927D01*
X148806854Y-88352928D01*
X148795499Y-88371350D01*
X148717885Y-88497262D01*
X148715581Y-88504209D01*
X148715580Y-88504212D01*
X148709537Y-88522430D01*
X148669107Y-88580791D01*
X148603543Y-88608028D01*
X148533661Y-88595495D01*
X148481649Y-88547171D01*
X148470421Y-88522641D01*
X148463871Y-88503007D01*
X148463867Y-88502997D01*
X148461550Y-88496054D01*
X148368478Y-88345652D01*
X148243303Y-88220695D01*
X148237072Y-88216854D01*
X148098968Y-88131725D01*
X148098966Y-88131724D01*
X148092738Y-88127885D01*
X147932254Y-88074655D01*
X147931389Y-88074368D01*
X147931387Y-88074368D01*
X147924861Y-88072203D01*
X147918025Y-88071503D01*
X147918022Y-88071502D01*
X147874969Y-88067091D01*
X147820400Y-88061500D01*
X146819600Y-88061500D01*
X146816354Y-88061837D01*
X146816350Y-88061837D01*
X146720692Y-88071762D01*
X146720688Y-88071763D01*
X146713834Y-88072474D01*
X146707298Y-88074655D01*
X146707296Y-88074655D01*
X146607344Y-88108002D01*
X146546054Y-88128450D01*
X146395652Y-88221522D01*
X146270695Y-88346697D01*
X146266855Y-88352927D01*
X146266854Y-88352928D01*
X146255499Y-88371350D01*
X146177885Y-88497262D01*
X146175581Y-88504209D01*
X146134560Y-88627885D01*
X146122203Y-88665139D01*
X146111500Y-88769600D01*
X146111500Y-89570400D01*
X146111837Y-89573646D01*
X146111837Y-89573650D01*
X146117492Y-89628148D01*
X146122474Y-89676166D01*
X146124655Y-89682702D01*
X146124655Y-89682704D01*
X146132081Y-89704962D01*
X146178450Y-89843946D01*
X146271522Y-89994348D01*
X146276704Y-89999521D01*
X146358109Y-90080784D01*
X146392188Y-90143066D01*
X146387185Y-90213886D01*
X146358264Y-90258975D01*
X146350705Y-90266547D01*
X146270695Y-90346697D01*
X146266855Y-90352927D01*
X146266854Y-90352928D01*
X146192823Y-90473029D01*
X146177885Y-90497262D01*
X146122203Y-90665139D01*
X146111500Y-90769600D01*
X146111500Y-91570400D01*
X146111837Y-91573646D01*
X146111837Y-91573650D01*
X146120942Y-91661399D01*
X146122474Y-91676166D01*
X146124655Y-91682702D01*
X146124655Y-91682704D01*
X146139643Y-91727627D01*
X146178450Y-91843946D01*
X146271522Y-91994348D01*
X146396697Y-92119305D01*
X146407117Y-92125728D01*
X146454609Y-92178499D01*
X146467000Y-92232987D01*
X146467000Y-92522300D01*
X146446998Y-92590421D01*
X146393342Y-92636914D01*
X146380876Y-92641824D01*
X146316055Y-92663450D01*
X146165652Y-92756522D01*
X146040695Y-92881697D01*
X145947885Y-93032262D01*
X145945581Y-93039209D01*
X145894771Y-93192398D01*
X145892203Y-93200139D01*
X145891503Y-93206975D01*
X145891502Y-93206978D01*
X145887993Y-93241226D01*
X145881500Y-93304600D01*
X145881500Y-94655400D01*
X142748500Y-94655400D01*
X142748500Y-82824669D01*
X152932001Y-82824669D01*
X152932371Y-82831490D01*
X152937895Y-82882352D01*
X152941521Y-82897604D01*
X152986676Y-83018054D01*
X152995214Y-83033649D01*
X153071715Y-83135724D01*
X153084276Y-83148285D01*
X153186351Y-83224786D01*
X153201946Y-83233324D01*
X153322394Y-83278478D01*
X153337649Y-83282105D01*
X153388514Y-83287631D01*
X153395328Y-83288000D01*
X154667885Y-83288000D01*
X154683124Y-83283525D01*
X154684329Y-83282135D01*
X154686000Y-83274452D01*
X154686000Y-83269884D01*
X155194000Y-83269884D01*
X155198475Y-83285123D01*
X155199865Y-83286328D01*
X155207548Y-83287999D01*
X156484669Y-83287999D01*
X156491490Y-83287629D01*
X156542352Y-83282105D01*
X156557604Y-83278479D01*
X156678054Y-83233324D01*
X156693649Y-83224786D01*
X156795724Y-83148285D01*
X156808285Y-83135724D01*
X156884786Y-83033649D01*
X156893324Y-83018054D01*
X156938478Y-82897606D01*
X156942105Y-82882351D01*
X156947631Y-82831486D01*
X156948000Y-82824672D01*
X156948000Y-81552115D01*
X156943525Y-81536876D01*
X156942135Y-81535671D01*
X156934452Y-81534000D01*
X155212115Y-81534000D01*
X155196876Y-81538475D01*
X155195671Y-81539865D01*
X155194000Y-81547548D01*
X155194000Y-83269884D01*
X154686000Y-83269884D01*
X154686000Y-81552115D01*
X154681525Y-81536876D01*
X154680135Y-81535671D01*
X154672452Y-81534000D01*
X152950116Y-81534000D01*
X152934877Y-81538475D01*
X152933672Y-81539865D01*
X152932001Y-81547548D01*
X152932001Y-82824669D01*
X142748500Y-82824669D01*
X142748500Y-81258918D01*
X158006917Y-81258918D01*
X158022682Y-81532320D01*
X158023507Y-81536525D01*
X158023508Y-81536533D01*
X158034127Y-81590657D01*
X158075405Y-81801053D01*
X158076792Y-81805103D01*
X158076793Y-81805108D01*
X158097605Y-81865895D01*
X158164112Y-82060144D01*
X158287160Y-82304799D01*
X158289586Y-82308328D01*
X158289589Y-82308334D01*
X158439843Y-82526953D01*
X158442274Y-82530490D01*
X158626582Y-82733043D01*
X158836675Y-82908707D01*
X158840316Y-82910991D01*
X159065024Y-83051951D01*
X159065028Y-83051953D01*
X159068664Y-83054234D01*
X159136544Y-83084883D01*
X159314345Y-83165164D01*
X159314349Y-83165166D01*
X159318257Y-83166930D01*
X159322377Y-83168150D01*
X159322376Y-83168150D01*
X159576723Y-83243491D01*
X159576727Y-83243492D01*
X159580836Y-83244709D01*
X159585070Y-83245357D01*
X159585075Y-83245358D01*
X159847298Y-83285483D01*
X159847300Y-83285483D01*
X159851540Y-83286132D01*
X159990912Y-83288322D01*
X160121071Y-83290367D01*
X160121077Y-83290367D01*
X160125362Y-83290434D01*
X160397235Y-83257534D01*
X160662127Y-83188041D01*
X160666087Y-83186401D01*
X160666092Y-83186399D01*
X160788631Y-83135641D01*
X160915136Y-83083241D01*
X161151582Y-82945073D01*
X161367089Y-82776094D01*
X161408809Y-82733043D01*
X161554686Y-82582509D01*
X161557669Y-82579431D01*
X161560202Y-82575983D01*
X161560206Y-82575978D01*
X161717257Y-82362178D01*
X161719795Y-82358723D01*
X161747154Y-82308334D01*
X161848418Y-82121830D01*
X161848419Y-82121828D01*
X161850468Y-82118054D01*
X161947269Y-81861877D01*
X162008407Y-81594933D01*
X162012229Y-81552115D01*
X162032531Y-81324627D01*
X162032531Y-81324625D01*
X162032751Y-81322161D01*
X162033193Y-81280000D01*
X162031465Y-81254648D01*
X162014859Y-81011055D01*
X162014858Y-81011049D01*
X162014567Y-81006778D01*
X161959032Y-80738612D01*
X161867617Y-80480465D01*
X161749947Y-80252483D01*
X161743978Y-80240919D01*
X161743978Y-80240918D01*
X161742013Y-80237112D01*
X161732040Y-80222921D01*
X161587008Y-80016562D01*
X161584545Y-80013057D01*
X161491898Y-79913357D01*
X161401046Y-79815588D01*
X161401043Y-79815585D01*
X161398125Y-79812445D01*
X161394810Y-79809731D01*
X161394806Y-79809728D01*
X161189523Y-79641706D01*
X161186205Y-79638990D01*
X160952704Y-79495901D01*
X160948768Y-79494173D01*
X160705873Y-79387549D01*
X160705869Y-79387548D01*
X160701945Y-79385825D01*
X160438566Y-79310800D01*
X160434324Y-79310196D01*
X160434318Y-79310195D01*
X160207366Y-79277895D01*
X160167443Y-79272213D01*
X160023589Y-79271460D01*
X159897877Y-79270802D01*
X159897871Y-79270802D01*
X159893591Y-79270780D01*
X159889347Y-79271339D01*
X159889343Y-79271339D01*
X159781416Y-79285548D01*
X159622078Y-79306525D01*
X159617938Y-79307658D01*
X159617936Y-79307658D01*
X159548418Y-79326676D01*
X159357928Y-79378788D01*
X159353980Y-79380472D01*
X159109982Y-79484546D01*
X159109978Y-79484548D01*
X159106030Y-79486232D01*
X159086125Y-79498145D01*
X158874725Y-79624664D01*
X158874721Y-79624667D01*
X158871043Y-79626868D01*
X158657318Y-79798094D01*
X158468808Y-79996742D01*
X158309002Y-80219136D01*
X158180857Y-80461161D01*
X158179385Y-80465184D01*
X158179383Y-80465188D01*
X158168978Y-80493622D01*
X158086743Y-80718337D01*
X158028404Y-80985907D01*
X158006917Y-81258918D01*
X142748500Y-81258918D01*
X142748500Y-81007885D01*
X152932000Y-81007885D01*
X152936475Y-81023124D01*
X152937865Y-81024329D01*
X152945548Y-81026000D01*
X154667885Y-81026000D01*
X154683124Y-81021525D01*
X154684329Y-81020135D01*
X154686000Y-81012452D01*
X154686000Y-81007885D01*
X155194000Y-81007885D01*
X155198475Y-81023124D01*
X155199865Y-81024329D01*
X155207548Y-81026000D01*
X156929884Y-81026000D01*
X156945123Y-81021525D01*
X156946328Y-81020135D01*
X156947999Y-81012452D01*
X156947999Y-79735331D01*
X156947629Y-79728510D01*
X156942105Y-79677648D01*
X156938479Y-79662396D01*
X156893324Y-79541946D01*
X156884786Y-79526351D01*
X156808285Y-79424276D01*
X156795724Y-79411715D01*
X156693649Y-79335214D01*
X156678054Y-79326676D01*
X156557606Y-79281522D01*
X156542351Y-79277895D01*
X156491486Y-79272369D01*
X156484672Y-79272000D01*
X155212115Y-79272000D01*
X155196876Y-79276475D01*
X155195671Y-79277865D01*
X155194000Y-79285548D01*
X155194000Y-81007885D01*
X154686000Y-81007885D01*
X154686000Y-79290116D01*
X154681525Y-79274877D01*
X154680135Y-79273672D01*
X154672452Y-79272001D01*
X153395331Y-79272001D01*
X153388510Y-79272371D01*
X153337648Y-79277895D01*
X153322396Y-79281521D01*
X153201946Y-79326676D01*
X153186351Y-79335214D01*
X153084276Y-79411715D01*
X153071715Y-79424276D01*
X152995214Y-79526351D01*
X152986676Y-79541946D01*
X152941522Y-79662394D01*
X152937895Y-79677649D01*
X152932369Y-79728514D01*
X152932000Y-79735328D01*
X152932000Y-81007885D01*
X142748500Y-81007885D01*
X142748500Y-78766621D01*
X142765069Y-78710191D01*
X142981944Y-78710191D01*
X142995396Y-78731123D01*
X143000355Y-78760576D01*
X143009582Y-78952679D01*
X143009583Y-78952686D01*
X143009807Y-78957352D01*
X143010720Y-78961941D01*
X143035811Y-79088080D01*
X143061378Y-79216616D01*
X143062957Y-79221014D01*
X143062959Y-79221021D01*
X143134294Y-79419704D01*
X143150704Y-79465410D01*
X143152921Y-79469536D01*
X143264744Y-79677649D01*
X143275822Y-79698267D01*
X143278617Y-79702011D01*
X143278619Y-79702013D01*
X143364366Y-79816842D01*
X143433985Y-79910073D01*
X143437292Y-79913351D01*
X143437297Y-79913357D01*
X143618402Y-80092887D01*
X143621718Y-80096174D01*
X143625485Y-80098936D01*
X143625486Y-80098937D01*
X143794579Y-80222921D01*
X143834896Y-80252483D01*
X143839031Y-80254659D01*
X143839035Y-80254661D01*
X143962293Y-80319510D01*
X144068836Y-80375565D01*
X144318400Y-80462716D01*
X144322993Y-80463588D01*
X144573515Y-80511151D01*
X144573518Y-80511151D01*
X144578104Y-80512022D01*
X144710174Y-80517212D01*
X144837575Y-80522218D01*
X144837581Y-80522218D01*
X144842243Y-80522401D01*
X145105015Y-80493622D01*
X145109526Y-80492434D01*
X145109528Y-80492434D01*
X145356124Y-80427511D01*
X145356126Y-80427510D01*
X145360647Y-80426320D01*
X145475191Y-80377108D01*
X145599229Y-80323817D01*
X145599231Y-80323816D01*
X145603523Y-80321972D01*
X145828307Y-80182871D01*
X145844788Y-80168919D01*
X146026496Y-80015093D01*
X146026498Y-80015091D01*
X146030063Y-80012073D01*
X146204356Y-79813329D01*
X146214156Y-79798094D01*
X146344831Y-79594936D01*
X146347359Y-79591006D01*
X146455930Y-79349988D01*
X146527683Y-79095570D01*
X146561043Y-78833340D01*
X146563487Y-78740000D01*
X146560018Y-78693314D01*
X168397124Y-78693314D01*
X168398856Y-78729368D01*
X168409807Y-78957352D01*
X168410720Y-78961941D01*
X168435811Y-79088080D01*
X168461378Y-79216616D01*
X168462957Y-79221014D01*
X168462959Y-79221021D01*
X168534294Y-79419704D01*
X168550704Y-79465410D01*
X168552921Y-79469536D01*
X168664744Y-79677649D01*
X168675822Y-79698267D01*
X168678617Y-79702011D01*
X168678619Y-79702013D01*
X168764366Y-79816842D01*
X168833985Y-79910073D01*
X168837292Y-79913351D01*
X168837297Y-79913357D01*
X169018402Y-80092887D01*
X169021718Y-80096174D01*
X169025485Y-80098936D01*
X169025486Y-80098937D01*
X169194579Y-80222921D01*
X169234896Y-80252483D01*
X169239031Y-80254659D01*
X169239035Y-80254661D01*
X169362293Y-80319510D01*
X169468836Y-80375565D01*
X169718400Y-80462716D01*
X169722993Y-80463588D01*
X169973515Y-80511151D01*
X169973518Y-80511151D01*
X169978104Y-80512022D01*
X170110174Y-80517212D01*
X170237575Y-80522218D01*
X170237581Y-80522218D01*
X170242243Y-80522401D01*
X170505015Y-80493622D01*
X170509526Y-80492434D01*
X170509528Y-80492434D01*
X170756124Y-80427511D01*
X170756126Y-80427510D01*
X170760647Y-80426320D01*
X170875191Y-80377108D01*
X170999229Y-80323817D01*
X170999231Y-80323816D01*
X171003523Y-80321972D01*
X171228307Y-80182871D01*
X171244788Y-80168919D01*
X171426496Y-80015093D01*
X171426498Y-80015091D01*
X171430063Y-80012073D01*
X171604356Y-79813329D01*
X171614156Y-79798094D01*
X171744831Y-79594936D01*
X171747359Y-79591006D01*
X171855930Y-79349988D01*
X171927683Y-79095570D01*
X171960507Y-78837553D01*
X171988946Y-78772501D01*
X171996804Y-78767268D01*
X171964604Y-78717164D01*
X171959846Y-78691004D01*
X171944243Y-78481036D01*
X171944242Y-78481032D01*
X171943897Y-78476384D01*
X171885557Y-78218559D01*
X171870028Y-78178626D01*
X171791442Y-77976542D01*
X171791441Y-77976540D01*
X171789749Y-77972189D01*
X171763535Y-77926323D01*
X171660897Y-77746745D01*
X171658578Y-77742687D01*
X171494925Y-77535094D01*
X171302385Y-77353970D01*
X171265212Y-77328182D01*
X171089026Y-77205958D01*
X171089021Y-77205955D01*
X171085188Y-77203296D01*
X171080997Y-77201229D01*
X170852294Y-77088445D01*
X170852291Y-77088444D01*
X170848106Y-77086380D01*
X170791150Y-77068148D01*
X170600792Y-77007214D01*
X170600794Y-77007214D01*
X170596347Y-77005791D01*
X170453825Y-76982580D01*
X170340053Y-76964051D01*
X170340052Y-76964051D01*
X170335441Y-76963300D01*
X170120700Y-76960489D01*
X170099762Y-76954042D01*
X170097656Y-76955396D01*
X170072197Y-76959854D01*
X170071121Y-76959840D01*
X169809192Y-76995486D01*
X169804702Y-76996795D01*
X169804696Y-76996796D01*
X169696732Y-77028265D01*
X169555410Y-77069457D01*
X169551163Y-77071415D01*
X169551160Y-77071416D01*
X169460950Y-77113004D01*
X169315348Y-77180127D01*
X169311439Y-77182690D01*
X169098195Y-77322499D01*
X169098190Y-77322503D01*
X169094282Y-77325065D01*
X168897067Y-77501086D01*
X168728036Y-77704324D01*
X168590901Y-77930314D01*
X168589095Y-77934622D01*
X168589094Y-77934623D01*
X168500233Y-78146534D01*
X168488677Y-78174091D01*
X168487526Y-78178623D01*
X168487525Y-78178626D01*
X168465082Y-78266996D01*
X168423608Y-78430301D01*
X168397124Y-78693314D01*
X146560018Y-78693314D01*
X146559152Y-78681666D01*
X146544243Y-78481036D01*
X146544242Y-78481032D01*
X146543897Y-78476384D01*
X146485557Y-78218559D01*
X146470028Y-78178626D01*
X146391442Y-77976542D01*
X146391441Y-77976540D01*
X146389749Y-77972189D01*
X146363535Y-77926323D01*
X146260897Y-77746745D01*
X146258578Y-77742687D01*
X146094925Y-77535094D01*
X145902385Y-77353970D01*
X145865212Y-77328182D01*
X145689026Y-77205958D01*
X145689021Y-77205955D01*
X145685188Y-77203296D01*
X145680997Y-77201229D01*
X145452294Y-77088445D01*
X145452291Y-77088444D01*
X145448106Y-77086380D01*
X145391150Y-77068148D01*
X145200792Y-77007214D01*
X145200794Y-77007214D01*
X145196347Y-77005791D01*
X145053825Y-76982580D01*
X144940053Y-76964051D01*
X144940052Y-76964051D01*
X144935441Y-76963300D01*
X144720700Y-76960489D01*
X144699762Y-76954042D01*
X144697656Y-76955396D01*
X144672197Y-76959854D01*
X144671121Y-76959840D01*
X144409192Y-76995486D01*
X144404702Y-76996795D01*
X144404696Y-76996796D01*
X144296732Y-77028265D01*
X144155410Y-77069457D01*
X144151163Y-77071415D01*
X144151160Y-77071416D01*
X144060950Y-77113004D01*
X143915348Y-77180127D01*
X143911439Y-77182690D01*
X143698195Y-77322499D01*
X143698190Y-77322503D01*
X143694282Y-77325065D01*
X143497067Y-77501086D01*
X143328036Y-77704324D01*
X143190901Y-77930314D01*
X143189095Y-77934622D01*
X143189094Y-77934623D01*
X143100233Y-78146534D01*
X143088677Y-78174091D01*
X143087526Y-78178623D01*
X143087525Y-78178626D01*
X143065082Y-78266996D01*
X143023608Y-78430301D01*
X143023139Y-78434959D01*
X142999866Y-78666083D01*
X142981944Y-78710191D01*
X142765069Y-78710191D01*
X142766039Y-78706888D01*
X142750656Y-78676666D01*
X142748500Y-78653459D01*
X142748500Y-76834500D01*
X142768502Y-76766379D01*
X142822158Y-76719886D01*
X142874500Y-76708500D01*
X144662158Y-76708500D01*
X144685096Y-76715235D01*
G37*
%TD.AperFunction*%
%TA.AperFunction,Conductor*%
G36*
X158488608Y-91552502D02*
G01*
X158535101Y-91606158D01*
X158545205Y-91676432D01*
X158541484Y-91693652D01*
X158506233Y-91814989D01*
X158504438Y-91821169D01*
X158503934Y-91827574D01*
X158503933Y-91827579D01*
X158501745Y-91855386D01*
X158476459Y-91921727D01*
X158419321Y-91963867D01*
X158376133Y-91971500D01*
X156643362Y-91971500D01*
X156575241Y-91951498D01*
X156528748Y-91897842D01*
X156517750Y-91855381D01*
X156515570Y-91827664D01*
X156513269Y-91815066D01*
X156477995Y-91693653D01*
X156478198Y-91622657D01*
X156516751Y-91563041D01*
X156581416Y-91533732D01*
X156598992Y-91532500D01*
X158420487Y-91532500D01*
X158488608Y-91552502D01*
G37*
%TD.AperFunction*%
%TD*%
M02*
